<svg width="140" height="140" viewBox="0 0 140 140" fill="none" xmlns="http://www.w3.org/2000/svg">
<rect width="140" height="140" rx="70" fill="#1D283A"/>
<path fill-rule="evenodd" clip-rule="evenodd" d="M54.6667 28.3333C54.6667 24.8355 57.5022 22 61 22H80C83.4978 22 86.3333 24.8355 86.3333 28.3333V34.6667H111.667C115.165 34.6667 118 37.5022 118 41V60C118 65.6291 115.55 70.6865 111.667 74.1618V94.8333C111.667 100.08 107.413 104.333 102.167 104.333H38.8333C33.5866 104.333 29.3333 100.08 29.3333 94.8333V74.1607C25.4508 70.6857 23 65.6293 23 60V41C23 37.5022 25.8355 34.6667 29.3333 34.6667H54.6667V28.3333ZM80 28.3333V34.6667H61V28.3333H80ZM29.3333 41H54.6667H57.8333H83.1667H86.3333H111.667V60C111.667 64.142 109.682 67.8196 106.598 70.1359C104.482 71.7258 101.855 72.6667 99 72.6667H73.6667V69.5C73.6667 67.7511 72.2489 66.3333 70.5 66.3333C68.7511 66.3333 67.3333 67.7511 67.3333 69.5V72.6667H42C39.1456 72.6667 36.5191 71.7251 34.4018 70.1347C31.3179 67.8182 29.3333 64.1417 29.3333 60V41ZM67.3333 79H42C39.7809 79 37.6485 78.6182 35.6667 77.9173V94.8333C35.6667 96.582 37.0844 98 38.8333 98H102.167C103.915 98 105.333 96.582 105.333 94.8333V77.9179C103.352 78.6186 101.219 79 99 79H73.6667V82.1667C73.6667 83.9156 72.2489 85.3333 70.5 85.3333C68.7511 85.3333 67.3333 83.9156 67.3333 82.1667V79Z" fill="white"/>
</svg>
